<svg width="29" height="29" viewBox="0 0 29 29" fill="none" xmlns="http://www.w3.org/2000/svg">
<path d="M14.5013 2.46484C7.85547 2.46484 2.41797 7.89026 2.41797 14.5724C2.41797 20.614 6.84047 25.6286 12.6163 26.5349V18.0765H9.54714V14.5724H12.6163V11.9019C12.6163 8.86901 14.4167 7.20151 17.1838 7.20151C18.5009 7.20151 19.8784 7.43109 19.8784 7.43109V10.4157H18.3559C16.8576 10.4157 16.3863 11.3461 16.3863 12.3007V14.5724H19.7455L19.2017 18.0765H16.3863V26.5349C19.2336 26.0851 21.8265 24.6323 23.6966 22.4386C25.5667 20.245 26.5912 17.455 26.5846 14.5724C26.5846 7.89026 21.1471 2.46484 14.5013 2.46484Z" fill="#AD9E80"/>
</svg>
