<svg width="44" height="44" viewBox="0 0 44 44" fill="none" xmlns="http://www.w3.org/2000/svg">
<circle cx="22" cy="22" r="21.5" stroke="#AD9E80"/>
<path d="M25.2663 30.1039C24.7944 30.5758 24.0294 30.5758 23.5574 30.1039L17.6518 24.1925C16.7088 23.2486 16.7092 21.719 17.6526 20.7757L23.5618 14.8665C24.0338 14.3946 24.7988 14.3946 25.2707 14.8665C25.7426 15.3383 25.7426 16.1034 25.2707 16.5753L20.213 21.633C19.7411 22.1049 19.7411 22.8699 20.213 23.3418L25.2663 28.3951C25.7382 28.867 25.7382 29.6321 25.2663 30.1039Z" fill="#AD9E80"/>
<circle cx="22" cy="22" r="21.5" stroke="#AD9E80"/>
<path d="M25.2663 30.1039C24.7944 30.5758 24.0294 30.5758 23.5574 30.1039L17.6518 24.1925C16.7088 23.2486 16.7092 21.719 17.6526 20.7757L23.5618 14.8665C24.0338 14.3946 24.7988 14.3946 25.2707 14.8665C25.7426 15.3383 25.7426 16.1034 25.2707 16.5753L20.213 21.633C19.7411 22.1049 19.7411 22.8699 20.213 23.3418L25.2663 28.3951C25.7382 28.867 25.7382 29.6321 25.2663 30.1039Z" fill="#AD9E80"/>
</svg>
