<svg width="19" height="15" viewBox="0 0 19 15" fill="none" xmlns="http://www.w3.org/2000/svg">
<path d="M18.9535 2.01033C18.8745 1.61125 18.6964 1.23407 18.4367 0.916973C18.3839 0.850399 18.3287 0.791172 18.2684 0.731092C17.8062 0.266482 17.1633 0 16.5045 0H2.49538C1.82923 0 1.20271 0.259766 0.73124 0.731352C0.671568 0.790875 0.616238 0.850695 0.561465 0.919385C0.302813 1.23515 0.125541 1.61181 0.0484648 2.01144C0.0162539 2.16837 0 2.33099 0 2.49549V12.3346C0 12.6769 0.069543 13.0102 0.207404 13.3271C0.326711 13.6085 0.50773 13.8752 0.731092 14.0985C0.78735 14.1545 0.843236 14.2061 0.902908 14.2565C1.34948 14.6263 1.91496 14.8298 2.49538 14.8298H16.5045C17.0887 14.8298 17.6536 14.6255 18.099 14.2524C18.1585 14.2042 18.2137 14.1537 18.2689 14.0985C18.4848 13.8828 18.6564 13.635 18.7798 13.3617L18.796 13.3227C18.9313 13.0119 19 12.6796 19 12.3346V2.49549C19 2.33314 18.9843 2.16945 18.9535 2.01033ZM1.29226 1.59259C1.32755 1.54093 1.3726 1.4879 1.43008 1.42997C1.71542 1.14479 2.09382 0.987852 2.49535 0.987852H16.5045C16.9096 0.987852 17.2881 1.14505 17.5702 1.43053C17.619 1.47977 17.6655 1.53444 17.7061 1.58906L17.8132 1.73304L10.3357 8.25004C10.1052 8.45214 9.80838 8.56336 9.49989 8.56336C9.19444 8.56336 8.8979 8.4524 8.66463 8.2503L1.19455 1.7349L1.29226 1.59259ZM0.992861 12.4214C0.988816 12.3946 0.987889 12.3649 0.987889 12.3346V2.69922L6.79068 7.76135L1.04645 12.7697L0.992861 12.4214ZM17.2521 13.6433C17.0275 13.7729 16.7689 13.8416 16.5045 13.8416H2.49538C2.2309 13.8416 1.97236 13.7729 1.74793 13.6433L1.5131 13.5072L7.44822 8.33495L8.09868 8.90072C8.48884 9.23946 8.98641 9.42619 9.49996 9.42619C10.0154 9.42619 10.5138 9.23946 10.9037 8.90072L11.5539 8.33469L17.487 13.5075L17.2521 13.6433ZM18.0119 12.3346C18.0119 12.3644 18.0113 12.3938 18.0075 12.4201L17.9561 12.7716L12.2094 7.76406L18.0119 2.70167V12.3346Z" fill="#AD9E80"/>
</svg>
