<svg width="35" height="35" viewBox="0 0 35 35" fill="none" xmlns="http://www.w3.org/2000/svg">
<circle cx="17.5" cy="17.5" r="17.5" fill="#AD9E80"/>
<circle cx="17.5" cy="17.5" r="17.5" fill="#AD9E80"/>
<g clip-path="url(#clip0_84_8)">
<path fill-rule="evenodd" clip-rule="evenodd" d="M7.875 8.75C7.875 8.26675 8.26675 7.875 8.75 7.875H9.63788C11.2623 7.875 12.8202 8.52031 13.9689 9.66897L16.4025 12.1026L22.681 9.66087C23.6512 9.2836 24.7526 9.5152 25.4887 10.2512L26.8687 11.6313C27.0623 11.8249 27.1541 12.0979 27.1169 12.3691C27.0796 12.6403 26.9175 12.8784 26.679 13.0126L20.6179 16.422L22.6586 18.7542L24.6388 18.4713C25.2969 18.3773 25.9611 18.5986 26.4312 19.0688C27.2562 19.8937 27.2562 21.2313 26.4312 22.0562L22.0562 26.4312C21.2313 27.2562 19.8937 27.2562 19.0688 26.4312C18.5986 25.9611 18.3773 25.2969 18.4713 24.6388L18.7542 22.6586L16.422 20.6179L13.0126 26.679C12.8784 26.9175 12.6403 27.0796 12.3691 27.1169C12.0979 27.1541 11.8249 27.0623 11.6313 26.8687L10.2512 25.4887C9.5152 24.7526 9.2836 23.6512 9.66087 22.6811L12.1026 16.4025L9.66897 13.9689C8.52031 12.8202 7.875 11.2623 7.875 9.63788V8.75ZM9.625 9.625V9.63788C9.625 10.7982 10.0859 11.911 10.9064 12.7315L13.7437 15.5688C13.9891 15.8141 14.0663 16.1813 13.9405 16.5046L11.2919 23.3153C11.1661 23.6387 11.2433 24.0059 11.4887 24.2512L12.053 24.8155L15.4249 18.8211C15.5541 18.5914 15.7799 18.4321 16.0396 18.3876C16.2994 18.3431 16.5653 18.418 16.7637 18.5916L20.2637 21.654C20.4865 21.8489 20.5956 22.1432 20.5537 22.4362L20.2037 24.8862C20.1876 24.9992 20.2255 25.1131 20.3062 25.1938C20.4478 25.3354 20.6772 25.3354 20.8188 25.1938L25.1938 20.8188C25.3354 20.6772 25.3354 20.4478 25.1938 20.3062C25.1131 20.2255 24.9992 20.1876 24.8862 20.2037L22.4362 20.5537C22.1432 20.5956 21.8489 20.4865 21.654 20.2637L18.5915 16.7637C18.418 16.5653 18.3431 16.2994 18.3876 16.0396C18.4321 15.7799 18.5913 15.5541 18.821 15.4249L24.8155 12.053L24.2512 11.4887C24.0059 11.2433 23.6387 11.1661 23.3153 11.2919L16.5046 13.9405C16.1813 14.0663 15.8141 13.9891 15.5688 13.7437L12.7315 10.9064C11.911 10.0859 10.7982 9.625 9.63788 9.625H9.625Z" fill="white"/>
</g>
<defs>
<clipPath id="clip0_84_8">
<rect width="21" height="21" fill="white" transform="translate(7 7)"/>
</clipPath>
</defs>
</svg>
